<svg width="700" height="500" viewBox="0 0 700 500" fill="none" xmlns="http://www.w3.org/2000/svg">
  <rect width="700" height="500" fill="#f5f6f8"/>
  <g transform="translate(168 52)">
    <path d="M182 0v80" stroke="#111827" stroke-width="14" stroke-linecap="round"/>
    <rect x="116" y="70" width="132" height="64" rx="18" fill="#1f2937"/>
    <path d="M32 248c16-78 70-134 150-134s134 56 150 134H32z" fill="#2f3742"/>
    <path d="M60 248h244c-15 44-61 76-122 76S75 292 60 248z" fill="#e5e7eb"/>
    <ellipse cx="182" cy="248" rx="126" ry="26" fill="#cfd4dc"/>
    <circle cx="182" cy="247" r="76" fill="#f9fafb" stroke="#c7ccd5" stroke-width="10"/>
    <g stroke="#b9c0ca" stroke-width="6">
      <circle cx="182" cy="247" r="51"/>
      <path d="M182 171v152"/>
      <path d="M106 247h152"/>
      <path d="M128 193l108 108"/>
      <path d="M236 193L128 301"/>
    </g>
  </g>
</svg>
